//
// Created by mjrsk on 10/9/2021.
//

#include "midi_file_dumps.h"

uint8_t zelda_theme[ZELDA_FILE_BYTES_SIZE] = {
        0x4d, 0x54, 0x68, 0x64, 0x00, 0x00, 0x00, 0x06, 0x00, 0x01, 0x00, 0x02, 0x04, 0x00, 0x4d, 0x54,
        0x72, 0x6b, 0x00, 0x00, 0x00, 0x1b, 0x00, 0xff, 0x58, 0x04, 0x04, 0x02, 0x18, 0x08, 0x00, 0xff,
        0x59, 0x02, 0xfe, 0x00, 0x00, 0xff, 0x51, 0x03, 0x06, 0x5b, 0x9a, 0x8b, 0x80, 0x00, 0xff, 0x2f,
        0x00, 0x4d, 0x54, 0x72, 0x6b, 0x00, 0x00, 0x1b, 0xa5, 0x00, 0xff, 0x03, 0x0c, 0x49, 0x6e, 0x73,
        0x74, 0x72, 0x75, 0x6d, 0x65, 0x6e, 0x74, 0x20, 0x31, 0x00, 0xc0, 0x00, 0x00, 0x90, 0x46, 0x65,
        0x00, 0x90, 0x3e, 0x65, 0x00, 0x90, 0x2e, 0x65, 0x88, 0x00, 0x80, 0x2e, 0x00, 0x00, 0x90, 0x2e,
        0x65, 0x82, 0x55, 0x80, 0x2e, 0x00, 0x00, 0x90, 0x2e, 0x65, 0x82, 0x56, 0x80, 0x2e, 0x00, 0x00,
        0x90, 0x2e, 0x65, 0x82, 0x55, 0x80, 0x46, 0x00, 0x00, 0x80, 0x3e, 0x00, 0x00, 0x80, 0x2e, 0x00,
        0x00, 0x90, 0x2e, 0x65, 0x86, 0x00, 0x90, 0x46, 0x65, 0x00, 0x90, 0x3e, 0x65, 0x82, 0x00, 0x80,
        0x46, 0x00, 0x00, 0x90, 0x46, 0x65, 0x00, 0x80, 0x3e, 0x00, 0x00, 0x90, 0x3e, 0x65, 0x00, 0x80,
        0x2e, 0x00, 0x00, 0x90, 0x2e, 0x65, 0x82, 0x55, 0x80, 0x46, 0x00, 0x00, 0x90, 0x46, 0x65, 0x00,
        0x80, 0x3e, 0x00, 0x00, 0x90, 0x3e, 0x65, 0x00, 0x80, 0x2e, 0x00, 0x00, 0x90, 0x2e, 0x65, 0x82,
        0x56, 0x80, 0x46, 0x00, 0x00, 0x90, 0x46, 0x65, 0x00, 0x80, 0x3e, 0x00, 0x00, 0x90, 0x3e, 0x65,
        0x00, 0x80, 0x2e, 0x00, 0x00, 0x90, 0x2e, 0x65, 0x82, 0x55, 0x80, 0x46, 0x00, 0x00, 0x80, 0x3e,
        0x00, 0x00, 0x80, 0x2e, 0x00, 0x00, 0x90, 0x46, 0x65, 0x00, 0x90, 0x3c, 0x65, 0x00, 0x90, 0x2c,
        0x65, 0x82, 0x55, 0x80, 0x46, 0x00, 0x00, 0x80, 0x3c, 0x00, 0x82, 0x56, 0x90, 0x44, 0x65, 0x00,
        0x90, 0x3c, 0x65, 0x82, 0x55, 0x80, 0x44, 0x00, 0x00, 0x90, 0x46, 0x65, 0x00, 0x80, 0x3c, 0x00,
        0x00, 0x90, 0x3c, 0x65, 0x00, 0x80, 0x2c, 0x00, 0x00, 0x90, 0x2c, 0x65, 0x82, 0x55, 0x80, 0x2c,
        0x00, 0x00, 0x90, 0x2c, 0x65, 0x82, 0x56, 0x80, 0x2c, 0x00, 0x00, 0x90, 0x2c, 0x65, 0x82, 0x55,
        0x80, 0x46, 0x00, 0x00, 0x80, 0x3c, 0x00, 0x00, 0x80, 0x2c, 0x00, 0x00, 0x90, 0x2c, 0x65, 0x86,
        0x00, 0x90, 0x46, 0x65, 0x82, 0x00, 0x80, 0x46, 0x00, 0x00, 0x90, 0x46, 0x65, 0x00, 0x90, 0x3c,
        0x65, 0x00, 0x80, 0x2c, 0x00, 0x00, 0x90, 0x2c, 0x65, 0x82, 0x55, 0x80, 0x46, 0x00, 0x00, 0x90,
        0x46, 0x65, 0x00, 0x80, 0x3c, 0x00, 0x00, 0x90, 0x3c, 0x65, 0x00, 0x80, 0x2c, 0x00, 0x00, 0x90,
        0x2c, 0x65, 0x82, 0x56, 0x80, 0x46, 0x00, 0x00, 0x90, 0x46, 0x65, 0x00, 0x80, 0x3c, 0x00, 0x00,
        0x90, 0x3c, 0x65, 0x00, 0x80, 0x2c, 0x00, 0x00, 0x90, 0x2c, 0x65, 0x82, 0x55, 0x80, 0x46, 0x00,
        0x00, 0x80, 0x3c, 0x00, 0x00, 0x80, 0x2c, 0x00, 0x00, 0x90, 0x46, 0x65, 0x00, 0x90, 0x3d, 0x65,
        0x00, 0x90, 0x2a, 0x65, 0x82, 0x55, 0x80, 0x46, 0x00, 0x00, 0x80, 0x3d, 0x00, 0x82, 0x56, 0x90,
        0x44, 0x65, 0x00, 0x90, 0x3d, 0x65, 0x82, 0x55, 0x80, 0x44, 0x00, 0x00, 0x90, 0x46, 0x65, 0x00,
        0x80, 0x3d, 0x00, 0x00, 0x90, 0x3d, 0x65, 0x00, 0x80, 0x2a, 0x00, 0x00, 0x90, 0x2a, 0x65, 0x82,
        0x55, 0x80, 0x2a, 0x00, 0x00, 0x90, 0x2a, 0x65, 0x82, 0x56, 0x80, 0x2a, 0x00, 0x00, 0x90, 0x2a,
        0x65, 0x82, 0x55, 0x80, 0x46, 0x00, 0x00, 0x80, 0x3d, 0x00, 0x00, 0x80, 0x2a, 0x00, 0x00, 0x90,
        0x2a, 0x65, 0x86, 0x00, 0x90, 0x46, 0x65, 0x82, 0x00, 0x80, 0x46, 0x00, 0x00, 0x90, 0x46, 0x65,
        0x00, 0x90, 0x3d, 0x65, 0x00, 0x80, 0x2a, 0x00, 0x00, 0x90, 0x2a, 0x65, 0x82, 0x55, 0x80, 0x46,
        0x00, 0x00, 0x90, 0x46, 0x65, 0x00, 0x80, 0x3d, 0x00, 0x00, 0x90, 0x3d, 0x65, 0x00, 0x80, 0x2a,
        0x00, 0x00, 0x90, 0x2a, 0x65, 0x82, 0x56, 0x80, 0x46, 0x00, 0x00, 0x90, 0x46, 0x65, 0x00, 0x80,
        0x3d, 0x00, 0x00, 0x90, 0x3d, 0x65, 0x00, 0x80, 0x2a, 0x00, 0x00, 0x90, 0x2a, 0x65, 0x82, 0x55,
        0x80, 0x46, 0x00, 0x00, 0x80, 0x3d, 0x00, 0x00, 0x80, 0x2a, 0x00, 0x00, 0x90, 0x46, 0x65, 0x00,
        0x90, 0x3d, 0x65, 0x00, 0x90, 0x29, 0x65, 0x84, 0x00, 0x80, 0x46, 0x00, 0x00, 0x90, 0x41, 0x65,
        0x00, 0x80, 0x3d, 0x00, 0x00, 0x90, 0x39, 0x65, 0x82, 0x00, 0x80, 0x41, 0x00, 0x00, 0x90, 0x41,
        0x65, 0x00, 0x80, 0x39, 0x00, 0x00, 0x90, 0x39, 0x65, 0x82, 0x00, 0x80, 0x41, 0x00, 0x00, 0x90,
        0x41, 0x65, 0x00, 0x80, 0x39, 0x00, 0x00, 0x90, 0x39, 0x65, 0x00, 0x80, 0x29, 0x00, 0x00, 0x90,
        0x29, 0x65, 0x84, 0x00, 0x80, 0x41, 0x00, 0x00, 0x90, 0x41, 0x65, 0x00, 0x80, 0x39, 0x00, 0x00,
        0x90, 0x39, 0x65, 0x82, 0x00, 0x80, 0x41, 0x00, 0x00, 0x90, 0x41, 0x65, 0x00, 0x80, 0x39, 0x00,
        0x00, 0x90, 0x39, 0x65, 0x82, 0x00, 0x80, 0x41, 0x00, 0x00, 0x90, 0x41, 0x65, 0x00, 0x80, 0x39,
        0x00, 0x00, 0x90, 0x39, 0x65, 0x00, 0x80, 0x29, 0x00, 0x00, 0x90, 0x29, 0x65, 0x84, 0x00, 0x80,
        0x41, 0x00, 0x00, 0x90, 0x41, 0x65, 0x00, 0x80, 0x39, 0x00, 0x00, 0x90, 0x39, 0x65, 0x82, 0x00,
        0x80, 0x41, 0x00, 0x00, 0x90, 0x41, 0x65, 0x00, 0x80, 0x39, 0x00, 0x00, 0x90, 0x39, 0x65, 0x82,
        0x00, 0x80, 0x41, 0x00, 0x00, 0x90, 0x41, 0x65, 0x00, 0x80, 0x39, 0x00, 0x00, 0x90, 0x39, 0x65,
        0x00, 0x80, 0x29, 0x00, 0x00, 0x90, 0x2b, 0x65, 0x84, 0x00, 0x80, 0x41, 0x00, 0x00, 0x90, 0x41,
        0x65, 0x00, 0x80, 0x39, 0x00, 0x00, 0x90, 0x39, 0x65, 0x00, 0x80, 0x2b, 0x00, 0x00, 0x90, 0x2d,
        0x65, 0x84, 0x00, 0x80, 0x41, 0x00, 0x00, 0x80, 0x39, 0x00, 0x00, 0x80, 0x2d, 0x00, 0x00, 0x90,
        0x46, 0x65, 0x00, 0x90, 0x3e, 0x65, 0x00, 0x90, 0x2e, 0x65, 0x88, 0x00, 0x80, 0x46, 0x00, 0x00,
        0x90, 0x41, 0x65, 0x00, 0x80, 0x3e, 0x00, 0x00, 0x90, 0x3e, 0x65, 0x00, 0x80, 0x2e, 0x00, 0x00,
        0x90, 0x2e, 0x65, 0x82, 0x55, 0x80, 0x3e, 0x00, 0x00, 0x90, 0x3e, 0x65, 0x00, 0x80, 0x2e, 0x00,
        0x00, 0x90, 0x2e, 0x65, 0x82, 0x56, 0x80, 0x3e, 0x00, 0x00, 0x90, 0x3c, 0x65, 0x00, 0x80, 0x2e,
        0x00, 0x00, 0x90, 0x2c, 0x65, 0x82, 0x55, 0x80, 0x3c, 0x00, 0x00, 0x90, 0x3e, 0x65, 0x00, 0x80,
        0x2c, 0x00, 0x00, 0x90, 0x2e, 0x65, 0x84, 0x00, 0x80, 0x41, 0x00, 0x00, 0x90, 0x46, 0x65, 0x00,
        0x80, 0x3e, 0x00, 0x00, 0x90, 0x3e, 0x65, 0x84, 0x00, 0x80, 0x46, 0x00, 0x00, 0x90, 0x46, 0x65,
        0x00, 0x80, 0x3e, 0x00, 0x00, 0x90, 0x3e, 0x65, 0x00, 0x80, 0x2e, 0x00, 0x00, 0x90, 0x2e, 0x65,
        0x82, 0x00, 0x80, 0x46, 0x00, 0x00, 0x90, 0x48, 0x65, 0x00, 0x80, 0x3e, 0x00, 0x00, 0x90, 0x3f,
        0x65, 0x82, 0x00, 0x80, 0x48, 0x00, 0x00, 0x90, 0x4a, 0x65, 0x00, 0x80, 0x3f, 0x00, 0x00, 0x90,
        0x41, 0x65, 0x82, 0x00, 0x80, 0x4a, 0x00, 0x00, 0x90, 0x4b, 0x65, 0x00, 0x80, 0x41, 0x00, 0x00,
        0x90, 0x43, 0x65, 0x82, 0x00, 0x80, 0x4b, 0x00, 0x00, 0x80, 0x43, 0x00, 0x00, 0x80, 0x2e, 0x00,
        0x00, 0x90, 0x4d, 0x65, 0x00, 0x90, 0x44, 0x65, 0x00, 0x90, 0x2c, 0x65, 0x84, 0x00, 0x80, 0x44,
        0x00, 0x00, 0x90, 0x46, 0x65, 0x84, 0x00, 0x80, 0x46, 0x00, 0x00, 0x90, 0x46, 0x65, 0x00, 0x80,
        0x2c, 0x00, 0x00, 0x90, 0x2c, 0x65, 0x82, 0x00, 0x80, 0x46, 0x00, 0x00, 0x90, 0x48, 0x65, 0x55,
        0x80, 0x2c, 0x00, 0x00, 0x90, 0x2c, 0x65, 0x81, 0x2b, 0x80, 0x48, 0x00, 0x00, 0x90, 0x4a, 0x65,
        0x81, 0x2b, 0x80, 0x2c, 0x00, 0x00, 0x90, 0x2a, 0x65, 0x55, 0x80, 0x4a, 0x00, 0x00, 0x90, 0x4b,
        0x65, 0x82, 0x00, 0x80, 0x4d, 0x00, 0x00, 0x80, 0x4b, 0x00, 0x00, 0x90, 0x4d, 0x65, 0x00, 0x80,
        0x2a, 0x00, 0x00, 0x90, 0x2c, 0x65, 0x84, 0x00, 0x90, 0x4d, 0x65, 0x84, 0x00, 0x80, 0x4d, 0x00,
        0x00, 0x90, 0x4d, 0x65, 0x00, 0x80, 0x4d, 0x00, 0x00, 0x90, 0x44, 0x65, 0x00, 0x80, 0x2c, 0x00,
        0x00, 0x90, 0x2c, 0x65, 0x82, 0x55, 0x80, 0x4d, 0x00, 0x00, 0x90, 0x4e, 0x65, 0x00, 0x80, 0x44,
        0x00, 0x00, 0x90, 0x46, 0x65, 0x82, 0x56, 0x80, 0x4e, 0x00, 0x00, 0x90, 0x50, 0x65, 0x00, 0x80,
        0x46, 0x00, 0x00, 0x90, 0x48, 0x65, 0x82, 0x55, 0x80, 0x50, 0x00, 0x00, 0x80, 0x48, 0x00, 0x00,
        0x80, 0x2c, 0x00, 0x00, 0x90, 0x52, 0x65, 0x00, 0x90, 0x49, 0x65, 0x00, 0x90, 0x2a, 0x65, 0x84,
        0x00, 0x80, 0x49, 0x00, 0x00, 0x90, 0x42, 0x65, 0x84, 0x00, 0x80, 0x42, 0x00, 0x00, 0x90, 0x42,
        0x65, 0x00, 0x80, 0x2a, 0x00, 0x00, 0x90, 0x2a, 0x65, 0x82, 0x00, 0x80, 0x42, 0x00, 0x00, 0x90,
        0x44, 0x65, 0x55, 0x80, 0x2a, 0x00, 0x00, 0x90, 0x2a, 0x65, 0x81, 0x2b, 0x80, 0x44, 0x00, 0x00,
        0x90, 0x46, 0x65, 0x81, 0x2b, 0x80, 0x2a, 0x00, 0x00, 0x90, 0x28, 0x65, 0x55, 0x80, 0x46, 0x00,
        0x00, 0x90, 0x48, 0x65, 0x82, 0x00, 0x80, 0x52, 0x00, 0x00, 0x80, 0x48, 0x00, 0x00, 0x90, 0x49,
        0x65, 0x00, 0x80, 0x28, 0x00, 0x00, 0x90, 0x2a, 0x65, 0x84, 0x00, 0x90, 0x52, 0x65, 0x82, 0x00,
        0x80, 0x49, 0x00, 0x00, 0x90, 0x49, 0x65, 0x82, 0x00, 0x80, 0x52, 0x00, 0x00, 0x90, 0x52, 0x65,
        0x00, 0x80, 0x49, 0x00, 0x00, 0x90, 0x49, 0x65, 0x00, 0x80, 0x2a, 0x00, 0x00, 0x90, 0x2a, 0x65,
        0x82, 0x55, 0x80, 0x52, 0x00, 0x00, 0x90, 0x50, 0x65, 0x00, 0x80, 0x49, 0x00, 0x00, 0x90, 0x48,
        0x65, 0x82, 0x56, 0x80, 0x50, 0x00, 0x00, 0x90, 0x4e, 0x65, 0x00, 0x80, 0x48, 0x00, 0x00, 0x90,
        0x46, 0x65, 0x82, 0x55, 0x80, 0x4e, 0x00, 0x00, 0x80, 0x46, 0x00, 0x00, 0x80, 0x2a, 0x00, 0x00,
        0x90, 0x50, 0x65, 0x00, 0x90, 0x49, 0x65, 0x00, 0x90, 0x31, 0x65, 0x82, 0x55, 0x80, 0x50, 0x00,
        0x00, 0x80, 0x49, 0x00, 0x82, 0x56, 0x90, 0x4e, 0x65, 0x00, 0x90, 0x44, 0x65, 0x82, 0x55, 0x80,
        0x4e, 0x00, 0x00, 0x90, 0x4d, 0x65, 0x00, 0x80, 0x44, 0x00, 0x00, 0x90, 0x44, 0x65, 0x00, 0x80,
        0x31, 0x00, 0x00, 0x90, 0x31, 0x65, 0x82, 0x55, 0x80, 0x44, 0x00, 0x00, 0x90, 0x44, 0x65, 0x00,
        0x80, 0x31, 0x00, 0x00, 0x90, 0x31, 0x65, 0x82, 0x56, 0x80, 0x44, 0x00, 0x00, 0x90, 0x42, 0x65,
        0x00, 0x80, 0x31, 0x00, 0x00, 0x90, 0x2f, 0x65, 0x82, 0x55, 0x80, 0x42, 0x00, 0x00, 0x90, 0x44,
        0x65, 0x00, 0x80, 0x2f, 0x00, 0x00, 0x90, 0x31, 0x65, 0x82, 0x55, 0x80, 0x44, 0x00, 0x82, 0x56,
        0x90, 0x44, 0x65, 0x82, 0x55, 0x80, 0x4d, 0x00, 0x00, 0x90, 0x4d, 0x65, 0x00, 0x80, 0x44, 0x00,
        0x00, 0x90, 0x44, 0x65, 0x00, 0x80, 0x31, 0x00, 0x00, 0x90, 0x31, 0x65, 0x82, 0x55, 0x80, 0x44,
        0x00, 0x00, 0x90, 0x44, 0x65, 0x82, 0x56, 0x80, 0x44, 0x00, 0x00, 0x90, 0x44, 0x65, 0x82, 0x55,
        0x80, 0x4d, 0x00, 0x00, 0x80, 0x44, 0x00, 0x00, 0x80, 0x31, 0x00, 0x00, 0x90, 0x4b, 0x65, 0x00,
        0x90, 0x42, 0x65, 0x00, 0x90, 0x2f, 0x65, 0x84, 0x00, 0x80, 0x4b, 0x00, 0x00, 0x90, 0x4b, 0x65,
        0x00, 0x80, 0x42, 0x00, 0x00, 0x90, 0x42, 0x65, 0x82, 0x00, 0x80, 0x4b, 0x00, 0x00, 0x90, 0x4d,
        0x65, 0x00, 0x80, 0x42, 0x00, 0x00, 0x90, 0x41, 0x65, 0x82, 0x00, 0x80, 0x4d, 0x00, 0x00, 0x90,
        0x4e, 0x65, 0x00, 0x80, 0x41, 0x00, 0x00, 0x90, 0x42, 0x65, 0x00, 0x80, 0x2f, 0x00, 0x00, 0x90,
        0x2f, 0x65, 0x82, 0x55, 0x80, 0x2f, 0x00, 0x00, 0x90, 0x2f, 0x65, 0x81, 0x2b, 0x80, 0x42, 0x00,
        0x00, 0x90, 0x42, 0x65, 0x81, 0x2b, 0x80, 0x2f, 0x00, 0x00, 0x90, 0x2e, 0x65, 0x55, 0x80, 0x42,
        0x00, 0x00, 0x90, 0x44, 0x65, 0x82, 0x00, 0x80, 0x44, 0x00, 0x00, 0x90, 0x46, 0x65, 0x00, 0x80,
        0x2e, 0x00, 0x00, 0x90, 0x2f, 0x65, 0x88, 0x00, 0x80, 0x4e, 0x00, 0x00, 0x90, 0x4d, 0x65, 0x00,
        0x80, 0x46, 0x00, 0x00, 0x90, 0x44, 0x65, 0x00, 0x80, 0x2f, 0x00, 0x00, 0x90, 0x2f, 0x65, 0x82,
        0x55, 0x80, 0x2f, 0x00, 0x00, 0x90, 0x2f, 0x65, 0x81, 0x2b, 0x80, 0x4d, 0x00, 0x00, 0x90, 0x4b,
        0x65, 0x00, 0x80, 0x44, 0x00, 0x00, 0x90, 0x42, 0x65, 0x81, 0x2b, 0x80, 0x2f, 0x00, 0x00, 0x90,
        0x2f, 0x65, 0x82, 0x55, 0x80, 0x4b, 0x00, 0x00, 0x80, 0x42, 0x00, 0x00, 0x80, 0x2f, 0x00, 0x00,
        0x90, 0x49, 0x65, 0x00, 0x90, 0x41, 0x65, 0x00, 0x90, 0x2e, 0x65, 0x84, 0x00, 0x80, 0x49, 0x00,
        0x00, 0x90, 0x49, 0x65, 0x00, 0x80, 0x41, 0x00, 0x00, 0x90, 0x41, 0x65, 0x82, 0x00, 0x80, 0x49,
        0x00, 0x00, 0x90, 0x4b, 0x65, 0x00, 0x80, 0x41, 0x00, 0x00, 0x90, 0x3f, 0x65, 0x82, 0x00, 0x80,
        0x4b, 0x00, 0x00, 0x90, 0x4d, 0x65, 0x00, 0x80, 0x3f, 0x00, 0x00, 0x90, 0x41, 0x65, 0x00, 0x80,
        0x2e, 0x00, 0x00, 0x90, 0x2e, 0x65, 0x82, 0x55, 0x80, 0x2e, 0x00, 0x00, 0x90, 0x2e, 0x65, 0x81,
        0x2b, 0x80, 0x41, 0x00, 0x00, 0x90, 0x41, 0x65, 0x81, 0x2b, 0x80, 0x2e, 0x00, 0x00, 0x90, 0x2c,
        0x65, 0x55, 0x80, 0x41, 0x00, 0x00, 0x90, 0x42, 0x65, 0x82, 0x00, 0x80, 0x42, 0x00, 0x00, 0x90,
        0x44, 0x65, 0x00, 0x80, 0x2c, 0x00, 0x00, 0x90, 0x2e, 0x65, 0x88, 0x00, 0x80, 0x4d, 0x00, 0x00,
        0x90, 0x4b, 0x65, 0x00, 0x80, 0x44, 0x00, 0x00, 0x90, 0x42, 0x65, 0x00, 0x80, 0x2e, 0x00, 0x00,
        0x90, 0x2e, 0x65, 0x82, 0x55, 0x80, 0x2e, 0x00, 0x00, 0x90, 0x2e, 0x65, 0x81, 0x2b, 0x80, 0x4b,
        0x00, 0x00, 0x90, 0x49, 0x65, 0x00, 0x80, 0x42, 0x00, 0x00, 0x90, 0x41, 0x65, 0x81, 0x2b, 0x80,
        0x2e, 0x00, 0x00, 0x90, 0x2e, 0x65, 0x82, 0x55, 0x80, 0x49, 0x00, 0x00, 0x80, 0x41, 0x00, 0x00,
        0x80, 0x2e, 0x00, 0x00, 0x90, 0x48, 0x65, 0x00, 0x90, 0x40, 0x65, 0x00, 0x90, 0x30, 0x65, 0x84,
        0x00, 0x80, 0x48, 0x00, 0x00, 0x90, 0x48, 0x65, 0x82, 0x00, 0x80, 0x48, 0x00, 0x00, 0x90, 0x4a,
        0x65, 0x82, 0x00, 0x80, 0x4a, 0x00, 0x00, 0x90, 0x4c, 0x65, 0x00, 0x80, 0x40, 0x00, 0x00, 0x90,
        0x40, 0x65, 0x00, 0x80, 0x30, 0x00, 0x00, 0x90, 0x30, 0x65, 0x82, 0x55, 0x80, 0x30, 0x00, 0x00,
        0x90, 0x30, 0x65, 0x81, 0x2b, 0x80, 0x40, 0x00, 0x00, 0x90, 0x40, 0x65, 0x81, 0x2b, 0x80, 0x30,
        0x00, 0x00, 0x90, 0x30, 0x65, 0x55, 0x80, 0x40, 0x00, 0x00, 0x90, 0x41, 0x65, 0x82, 0x00, 0x80,
        0x41, 0x00, 0x00, 0x90, 0x43, 0x65, 0x00, 0x80, 0x30, 0x00, 0x00, 0x90, 0x30, 0x65, 0x84, 0x00,
        0x80, 0x43, 0x00, 0x00, 0x90, 0x43, 0x65, 0x82, 0x00, 0x80, 0x43, 0x00, 0x00, 0x90, 0x45, 0x65,
        0x82, 0x00, 0x80, 0x4c, 0x00, 0x00, 0x90, 0x4f, 0x65, 0x00, 0x80, 0x45, 0x00, 0x00, 0x90, 0x46,
        0x65, 0x00, 0x80, 0x30, 0x00, 0x00, 0x90, 0x30, 0x65, 0x82, 0x55, 0x80, 0x30, 0x00, 0x00, 0x90,
        0x30, 0x65, 0x81, 0x2b, 0x80, 0x46, 0x00, 0x00, 0x90, 0x48, 0x65, 0x81, 0x2b, 0x80, 0x30, 0x00,
        0x00, 0x90, 0x30, 0x65, 0x82, 0x55, 0x80, 0x4f, 0x00, 0x00, 0x80, 0x48, 0x00, 0x00, 0x80, 0x30,
        0x00, 0x00, 0x90, 0x4d, 0x65, 0x00, 0x90, 0x45, 0x65, 0x00, 0x90, 0x29, 0x65, 0x84, 0x00, 0x80,
        0x4d, 0x00, 0x00, 0x90, 0x41, 0x65, 0x00, 0x80, 0x45, 0x00, 0x00, 0x90, 0x39, 0x65, 0x82, 0x00,
        0x80, 0x41, 0x00, 0x00, 0x90, 0x41, 0x65, 0x00, 0x80, 0x39, 0x00, 0x00, 0x90, 0x39, 0x65, 0x82,
        0x00, 0x80, 0x41, 0x00, 0x00, 0x90, 0x41, 0x65, 0x00, 0x80, 0x39, 0x00, 0x00, 0x90, 0x39, 0x65,
        0x00, 0x80, 0x29, 0x00, 0x00, 0x90, 0x29, 0x65, 0x82, 0x55, 0x80, 0x29, 0x00, 0x00, 0x90, 0x29,
        0x65, 0x81, 0x2b, 0x80, 0x41, 0x00, 0x00, 0x90, 0x41, 0x65, 0x00, 0x80, 0x39, 0x00, 0x00, 0x90,
        0x39, 0x65, 0x81, 0x2b, 0x80, 0x29, 0x00, 0x00, 0x90, 0x29, 0x65, 0x55, 0x80, 0x41, 0x00, 0x00,
        0x90, 0x41, 0x65, 0x00, 0x80, 0x39, 0x00, 0x00, 0x90, 0x39, 0x65, 0x82, 0x00, 0x80, 0x41, 0x00,
        0x00, 0x90, 0x41, 0x65, 0x00, 0x80, 0x39, 0x00, 0x00, 0x90, 0x39, 0x65, 0x00, 0x80, 0x29, 0x00,
        0x00, 0x90, 0x29, 0x65, 0x84, 0x00, 0x80, 0x41, 0x00, 0x00, 0x90, 0x41, 0x65, 0x00, 0x80, 0x39,
        0x00, 0x00, 0x90, 0x39, 0x65, 0x82, 0x00, 0x80, 0x41, 0x00, 0x00, 0x90, 0x41, 0x65, 0x00, 0x80,
        0x39, 0x00, 0x00, 0x90, 0x39, 0x65, 0x82, 0x00, 0x80, 0x41, 0x00, 0x00, 0x90, 0x41, 0x65, 0x00,
        0x80, 0x39, 0x00, 0x00, 0x90, 0x39, 0x65, 0x00, 0x80, 0x29, 0x00, 0x00, 0x90, 0x2b, 0x65, 0x84,
        0x00, 0x80, 0x41, 0x00, 0x00, 0x90, 0x41, 0x65, 0x00, 0x80, 0x39, 0x00, 0x00, 0x90, 0x39, 0x65,
        0x00, 0x80, 0x2b, 0x00, 0x00, 0x90, 0x2d, 0x65, 0x84, 0x00, 0x80, 0x41, 0x00, 0x00, 0x80, 0x39,
        0x00, 0x00, 0x80, 0x2d, 0x00, 0x00, 0x90, 0x46, 0x65, 0x00, 0x90, 0x3e, 0x65, 0x00, 0x90, 0x2e,
        0x65, 0x88, 0x00, 0x80, 0x46, 0x00, 0x00, 0x90, 0x41, 0x65, 0x00, 0x80, 0x3e, 0x00, 0x00, 0x90,
        0x3e, 0x65, 0x00, 0x80, 0x2e, 0x00, 0x00, 0x90, 0x2e, 0x65, 0x82, 0x55, 0x80, 0x3e, 0x00, 0x00,
        0x90, 0x3e, 0x65, 0x00, 0x80, 0x2e, 0x00, 0x00, 0x90, 0x2e, 0x65, 0x82, 0x56, 0x80, 0x3e, 0x00,
        0x00, 0x90, 0x3c, 0x65, 0x00, 0x80, 0x2e, 0x00, 0x00, 0x90, 0x2c, 0x65, 0x82, 0x55, 0x80, 0x3c,
        0x00, 0x00, 0x90, 0x3e, 0x65, 0x00, 0x80, 0x2c, 0x00, 0x00, 0x90, 0x2e, 0x65, 0x84, 0x00, 0x80,
        0x41, 0x00, 0x00, 0x90, 0x46, 0x65, 0x00, 0x80, 0x3e, 0x00, 0x00, 0x90, 0x3e, 0x65, 0x84, 0x00,
        0x80, 0x46, 0x00, 0x00, 0x90, 0x46, 0x65, 0x00, 0x80, 0x3e, 0x00, 0x00, 0x90, 0x3e, 0x65, 0x00,
        0x80, 0x2e, 0x00, 0x00, 0x90, 0x2e, 0x65, 0x82, 0x00, 0x80, 0x46, 0x00, 0x00, 0x90, 0x48, 0x65,
        0x00, 0x80, 0x3e, 0x00, 0x00, 0x90, 0x3f, 0x65, 0x82, 0x00, 0x80, 0x48, 0x00, 0x00, 0x90, 0x4a,
        0x65, 0x00, 0x80, 0x3f, 0x00, 0x00, 0x90, 0x41, 0x65, 0x82, 0x00, 0x80, 0x4a, 0x00, 0x00, 0x90,
        0x4b, 0x65, 0x00, 0x80, 0x41, 0x00, 0x00, 0x90, 0x43, 0x65, 0x82, 0x00, 0x80, 0x4b, 0x00, 0x00,
        0x80, 0x43, 0x00, 0x00, 0x80, 0x2e, 0x00, 0x00, 0x90, 0x4d, 0x65, 0x00, 0x90, 0x44, 0x65, 0x00,
        0x90, 0x2c, 0x65, 0x84, 0x00, 0x80, 0x44, 0x00, 0x00, 0x90, 0x46, 0x65, 0x84, 0x00, 0x80, 0x46,
        0x00, 0x00, 0x90, 0x46, 0x65, 0x00, 0x80, 0x2c, 0x00, 0x00, 0x90, 0x2c, 0x65, 0x82, 0x00, 0x80,
        0x46, 0x00, 0x00, 0x90, 0x48, 0x65, 0x55, 0x80, 0x2c, 0x00, 0x00, 0x90, 0x2c, 0x65, 0x81, 0x2b,
        0x80, 0x48, 0x00, 0x00, 0x90, 0x4a, 0x65, 0x81, 0x2b, 0x80, 0x2c, 0x00, 0x00, 0x90, 0x2a, 0x65,
        0x55, 0x80, 0x4a, 0x00, 0x00, 0x90, 0x4b, 0x65, 0x82, 0x00, 0x80, 0x4d, 0x00, 0x00, 0x80, 0x4b,
        0x00, 0x00, 0x90, 0x4d, 0x65, 0x00, 0x80, 0x2a, 0x00, 0x00, 0x90, 0x2c, 0x65, 0x84, 0x00, 0x90,
        0x4d, 0x65, 0x84, 0x00, 0x80, 0x4d, 0x00, 0x00, 0x90, 0x4d, 0x65, 0x00, 0x80, 0x4d, 0x00, 0x00,
        0x90, 0x44, 0x65, 0x00, 0x80, 0x2c, 0x00, 0x00, 0x90, 0x2c, 0x65, 0x82, 0x55, 0x80, 0x4d, 0x00,
        0x00, 0x90, 0x4e, 0x65, 0x00, 0x80, 0x44, 0x00, 0x00, 0x90, 0x46, 0x65, 0x82, 0x56, 0x80, 0x4e,
        0x00, 0x00, 0x90, 0x50, 0x65, 0x00, 0x80, 0x46, 0x00, 0x00, 0x90, 0x48, 0x65, 0x82, 0x55, 0x80,
        0x50, 0x00, 0x00, 0x80, 0x48, 0x00, 0x00, 0x80, 0x2c, 0x00, 0x00, 0x90, 0x52, 0x65, 0x00, 0x90,
        0x49, 0x65, 0x00, 0x90, 0x2a, 0x65, 0x88, 0x00, 0x80, 0x2a, 0x00, 0x00, 0x90, 0x2a, 0x65, 0x82,
        0x55, 0x80, 0x2a, 0x00, 0x00, 0x90, 0x2a, 0x65, 0x82, 0x56, 0x80, 0x2a, 0x00, 0x00, 0x90, 0x28,
        0x65, 0x82, 0x55, 0x80, 0x52, 0x00, 0x00, 0x80, 0x49, 0x00, 0x00, 0x80, 0x28, 0x00, 0x00, 0x90,
        0x2a, 0x65, 0x88, 0x00, 0x90, 0x55, 0x65, 0x00, 0x90, 0x4c, 0x65, 0x00, 0x80, 0x2a, 0x00, 0x00,
        0x90, 0x2a, 0x65, 0x88, 0x00, 0x80, 0x55, 0x00, 0x00, 0x80, 0x4c, 0x00, 0x00, 0x80, 0x2a, 0x00,
        0x00, 0x90, 0x54, 0x65, 0x00, 0x90, 0x4b, 0x65, 0x00, 0x90, 0x29, 0x65, 0x88, 0x00, 0x80, 0x54,
        0x00, 0x00, 0x90, 0x51, 0x65, 0x00, 0x80, 0x4b, 0x00, 0x00, 0x90, 0x48, 0x65, 0x00, 0x80, 0x29,
        0x00, 0x00, 0x90, 0x29, 0x65, 0x82, 0x55, 0x80, 0x29, 0x00, 0x00, 0x90, 0x29, 0x65, 0x82, 0x56,
        0x80, 0x29, 0x00, 0x00, 0x90, 0x27, 0x65, 0x82, 0x55, 0x80, 0x51, 0x00, 0x00, 0x80, 0x48, 0x00,
        0x00, 0x80, 0x27, 0x00, 0x00, 0x90, 0x29, 0x65, 0x88, 0x00, 0x90, 0x4d, 0x65, 0x00, 0x90, 0x45,
        0x65, 0x00, 0x80, 0x29, 0x00, 0x00, 0x90, 0x29, 0x65, 0x88, 0x00, 0x80, 0x4d, 0x00, 0x00, 0x80,
        0x45, 0x00, 0x00, 0x80, 0x29, 0x00, 0x00, 0x90, 0x4e, 0x65, 0x00, 0x90, 0x47, 0x65, 0x00, 0x90,
        0x28, 0x65, 0x82, 0x55, 0x80, 0x28, 0x00, 0x00, 0x90, 0x2e, 0x65, 0x82, 0x56, 0x80, 0x2e, 0x00,
        0x00, 0x90, 0x31, 0x65, 0x82, 0x55, 0x80, 0x31, 0x00, 0x00, 0x90, 0x34, 0x65, 0x82, 0x55, 0x80,
        0x34, 0x00, 0x00, 0x90, 0x3a, 0x65, 0x82, 0x56, 0x80, 0x3a, 0x00, 0x00, 0x90, 0x3d, 0x65, 0x82,
        0x55, 0x80, 0x4e, 0x00, 0x00, 0x80, 0x47, 0x00, 0x00, 0x80, 0x3d, 0x00, 0x00, 0x90, 0x40, 0x65,
        0x88, 0x00, 0x90, 0x52, 0x65, 0x00, 0x90, 0x49, 0x65, 0x00, 0x80, 0x40, 0x00, 0x88, 0x00, 0x80,
        0x52, 0x00, 0x00, 0x80, 0x49, 0x00, 0x00, 0x90, 0x51, 0x65, 0x00, 0x90, 0x48, 0x65, 0x00, 0x90,
        0x41, 0x65, 0x88, 0x00, 0x80, 0x51, 0x00, 0x00, 0x90, 0x4d, 0x65, 0x00, 0x80, 0x48, 0x00, 0x00,
        0x90, 0x45, 0x65, 0x00, 0x80, 0x41, 0x00, 0x00, 0x90, 0x29, 0x65, 0x82, 0x55, 0x80, 0x29, 0x00,
        0x00, 0x90, 0x29, 0x65, 0x82, 0x56, 0x80, 0x29, 0x00, 0x00, 0x90, 0x29, 0x65, 0x82, 0x55, 0x80,
        0x4d, 0x00, 0x00, 0x80, 0x45, 0x00, 0x00, 0x80, 0x29, 0x00, 0x00, 0x90, 0x29, 0x65, 0x88, 0x00,
        0x90, 0x4d, 0x65, 0x00, 0x90, 0x45, 0x65, 0x00, 0x80, 0x29, 0x00, 0x88, 0x00, 0x80, 0x4d, 0x00,
        0x00, 0x80, 0x45, 0x00, 0x00, 0x90, 0x4e, 0x65, 0x00, 0x90, 0x47, 0x65, 0x00, 0x90, 0x28, 0x65,
        0x82, 0x55, 0x80, 0x28, 0x00, 0x00, 0x90, 0x2e, 0x65, 0x82, 0x56, 0x80, 0x2e, 0x00, 0x00, 0x90,
        0x31, 0x65, 0x82, 0x55, 0x80, 0x31, 0x00, 0x00, 0x90, 0x34, 0x65, 0x82, 0x55, 0x80, 0x34, 0x00,
        0x00, 0x90, 0x3a, 0x65, 0x82, 0x56, 0x80, 0x3a, 0x00, 0x00, 0x90, 0x3d, 0x65, 0x82, 0x55, 0x80,
        0x4e, 0x00, 0x00, 0x80, 0x47, 0x00, 0x00, 0x80, 0x3d, 0x00, 0x00, 0x90, 0x40, 0x65, 0x88, 0x00,
        0x90, 0x52, 0x65, 0x00, 0x90, 0x49, 0x65, 0x00, 0x80, 0x40, 0x00, 0x88, 0x00, 0x80, 0x52, 0x00,
        0x00, 0x80, 0x49, 0x00, 0x00, 0x90, 0x51, 0x65, 0x00, 0x90, 0x48, 0x65, 0x00, 0x90, 0x41, 0x65,
        0x88, 0x00, 0x80, 0x51, 0x00, 0x00, 0x90, 0x4d, 0x65, 0x00, 0x80, 0x48, 0x00, 0x00, 0x90, 0x45,
        0x65, 0x00, 0x80, 0x41, 0x00, 0x00, 0x90, 0x29, 0x65, 0x82, 0x55, 0x80, 0x29, 0x00, 0x00, 0x90,
        0x29, 0x65, 0x82, 0x56, 0x80, 0x29, 0x00, 0x00, 0x90, 0x29, 0x65, 0x82, 0x55, 0x80, 0x4d, 0x00,
        0x00, 0x80, 0x45, 0x00, 0x00, 0x80, 0x29, 0x00, 0x00, 0x90, 0x29, 0x65, 0x88, 0x00, 0x90, 0x4a,
        0x65, 0x00, 0x90, 0x45, 0x65, 0x00, 0x80, 0x29, 0x00, 0x88, 0x00, 0x80, 0x4a, 0x00, 0x00, 0x80,
        0x45, 0x00, 0x00, 0x90, 0x4b, 0x65, 0x00, 0x90, 0x42, 0x65, 0x00, 0x90, 0x2f, 0x65, 0x88, 0x00,
        0x80, 0x2f, 0x00, 0x00, 0x90, 0x2f, 0x65, 0x82, 0x55, 0x80, 0x2f, 0x00, 0x00, 0x90, 0x2f, 0x65,
        0x82, 0x56, 0x80, 0x2f, 0x00, 0x00, 0x90, 0x2e, 0x65, 0x82, 0x55, 0x80, 0x4b, 0x00, 0x00, 0x80,
        0x42, 0x00, 0x00, 0x80, 0x2e, 0x00, 0x00, 0x90, 0x2f, 0x65, 0x88, 0x00, 0x90, 0x4e, 0x65, 0x00,
        0x90, 0x47, 0x65, 0x00, 0x80, 0x2f, 0x00, 0x00, 0x90, 0x2f, 0x65, 0x82, 0x55, 0x80, 0x2f, 0x00,
        0x00, 0x90, 0x2f, 0x65, 0x82, 0x56, 0x80, 0x2f, 0x00, 0x00, 0x90, 0x2f, 0x65, 0x82, 0x55, 0x80,
        0x4e, 0x00, 0x00, 0x80, 0x47, 0x00, 0x00, 0x80, 0x2f, 0x00, 0x00, 0x90, 0x4d, 0x65, 0x00, 0x90,
        0x46, 0x65, 0x00, 0x90, 0x2e, 0x65, 0x88, 0x00, 0x80, 0x4d, 0x00, 0x00, 0x90, 0x49, 0x65, 0x00,
        0x80, 0x46, 0x00, 0x00, 0x90, 0x41, 0x65, 0x00, 0x80, 0x2e, 0x00, 0x00, 0x90, 0x2e, 0x65, 0x82,
        0x55, 0x80, 0x2e, 0x00, 0x00, 0x90, 0x2e, 0x65, 0x82, 0x56, 0x80, 0x2e, 0x00, 0x00, 0x90, 0x2c,
        0x65, 0x82, 0x55, 0x80, 0x49, 0x00, 0x00, 0x80, 0x41, 0x00, 0x00, 0x80, 0x2c, 0x00, 0x00, 0x90,
        0x2e, 0x65, 0x88, 0x00, 0x90, 0x46, 0x65, 0x00, 0x90, 0x3d, 0x65, 0x00, 0x80, 0x2e, 0x00, 0x00,
        0x90, 0x2e, 0x65, 0x82, 0x55, 0x80, 0x2e, 0x00, 0x00, 0x90, 0x2e, 0x65, 0x82, 0x56, 0x80, 0x2e,
        0x00, 0x00, 0x90, 0x2e, 0x65, 0x82, 0x55, 0x80, 0x46, 0x00, 0x00, 0x80, 0x3d, 0x00, 0x00, 0x80,
        0x2e, 0x00, 0x00, 0x90, 0x48, 0x65, 0x00, 0x90, 0x40, 0x65, 0x00, 0x90, 0x30, 0x65, 0x84, 0x00,
        0x80, 0x48, 0x00, 0x00, 0x90, 0x48, 0x65, 0x82, 0x00, 0x80, 0x48, 0x00, 0x00, 0x90, 0x4a, 0x65,
        0x82, 0x00, 0x80, 0x4a, 0x00, 0x00, 0x90, 0x4c, 0x65, 0x00, 0x80, 0x40, 0x00, 0x00, 0x90, 0x40,
        0x65, 0x00, 0x80, 0x30, 0x00, 0x00, 0x90, 0x30, 0x65, 0x82, 0x55, 0x80, 0x30, 0x00, 0x00, 0x90,
        0x30, 0x65, 0x81, 0x2b, 0x80, 0x40, 0x00, 0x00, 0x90, 0x40, 0x65, 0x81, 0x2b, 0x80, 0x30, 0x00,
        0x00, 0x90, 0x30, 0x65, 0x55, 0x80, 0x40, 0x00, 0x00, 0x90, 0x41, 0x65, 0x82, 0x00, 0x80, 0x41,
        0x00, 0x00, 0x90, 0x43, 0x65, 0x00, 0x80, 0x30, 0x00, 0x00, 0x90, 0x30, 0x65, 0x84, 0x00, 0x80,
        0x43, 0x00, 0x00, 0x90, 0x43, 0x65, 0x82, 0x00, 0x80, 0x43, 0x00, 0x00, 0x90, 0x45, 0x65, 0x82,
        0x00, 0x80, 0x4c, 0x00, 0x00, 0x90, 0x4f, 0x65, 0x00, 0x80, 0x45, 0x00, 0x00, 0x90, 0x46, 0x65,
        0x00, 0x80, 0x30, 0x00, 0x00, 0x90, 0x30, 0x65, 0x82, 0x55, 0x80, 0x30, 0x00, 0x00, 0x90, 0x30,
        0x65, 0x81, 0x2b, 0x80, 0x46, 0x00, 0x00, 0x90, 0x48, 0x65, 0x81, 0x2b, 0x80, 0x30, 0x00, 0x00,
        0x90, 0x30, 0x65, 0x82, 0x55, 0x80, 0x4f, 0x00, 0x00, 0x80, 0x48, 0x00, 0x00, 0x80, 0x30, 0x00,
        0x00, 0x90, 0x4d, 0x65, 0x00, 0x90, 0x45, 0x65, 0x00, 0x90, 0x29, 0x65, 0x84, 0x00, 0x80, 0x4d,
        0x00, 0x00, 0x90, 0x41, 0x65, 0x00, 0x80, 0x45, 0x00, 0x00, 0x90, 0x39, 0x65, 0x82, 0x00, 0x80,
        0x41, 0x00, 0x00, 0x90, 0x41, 0x65, 0x00, 0x80, 0x39, 0x00, 0x00, 0x90, 0x39, 0x65, 0x82, 0x00,
        0x80, 0x41, 0x00, 0x00, 0x90, 0x41, 0x65, 0x00, 0x80, 0x39, 0x00, 0x00, 0x90, 0x39, 0x65, 0x00,
        0x80, 0x29, 0x00, 0x00, 0x90, 0x29, 0x65, 0x82, 0x55, 0x80, 0x29, 0x00, 0x00, 0x90, 0x29, 0x65,
        0x81, 0x2b, 0x80, 0x41, 0x00, 0x00, 0x90, 0x41, 0x65, 0x00, 0x80, 0x39, 0x00, 0x00, 0x90, 0x39,
        0x65, 0x81, 0x2b, 0x80, 0x29, 0x00, 0x00, 0x90, 0x29, 0x65, 0x55, 0x80, 0x41, 0x00, 0x00, 0x90,
        0x41, 0x65, 0x00, 0x80, 0x39, 0x00, 0x00, 0x90, 0x39, 0x65, 0x82, 0x00, 0x80, 0x41, 0x00, 0x00,
        0x90, 0x41, 0x65, 0x00, 0x80, 0x39, 0x00, 0x00, 0x90, 0x39, 0x65, 0x00, 0x80, 0x29, 0x00, 0x00,
        0x90, 0x29, 0x65, 0x84, 0x00, 0x80, 0x41, 0x00, 0x00, 0x90, 0x41, 0x65, 0x00, 0x80, 0x39, 0x00,
        0x00, 0x90, 0x39, 0x65, 0x82, 0x00, 0x80, 0x41, 0x00, 0x00, 0x90, 0x41, 0x65, 0x00, 0x80, 0x39,
        0x00, 0x00, 0x90, 0x39, 0x65, 0x82, 0x00, 0x80, 0x41, 0x00, 0x00, 0x90, 0x41, 0x65, 0x00, 0x80,
        0x39, 0x00, 0x00, 0x90, 0x39, 0x65, 0x00, 0x80, 0x29, 0x00, 0x00, 0x90, 0x2b, 0x65, 0x84, 0x00,
        0x80, 0x41, 0x00, 0x00, 0x90, 0x41, 0x65, 0x00, 0x80, 0x39, 0x00, 0x00, 0x90, 0x39, 0x65, 0x00,
        0x80, 0x2b, 0x00, 0x00, 0x90, 0x2d, 0x65, 0x84, 0x00, 0x80, 0x41, 0x00, 0x00, 0x80, 0x39, 0x00,
        0x00, 0x80, 0x2d, 0x00, 0x00, 0x90, 0x46, 0x65, 0x00, 0x90, 0x3e, 0x65, 0x00, 0x90, 0x2e, 0x65,
        0x88, 0x00, 0x80, 0x46, 0x00, 0x00, 0x90, 0x41, 0x65, 0x00, 0x80, 0x3e, 0x00, 0x00, 0x90, 0x3e,
        0x65, 0x00, 0x80, 0x2e, 0x00, 0x00, 0x90, 0x2e, 0x65, 0x82, 0x55, 0x80, 0x3e, 0x00, 0x00, 0x90,
        0x3e, 0x65, 0x00, 0x80, 0x2e, 0x00, 0x00, 0x90, 0x2e, 0x65, 0x82, 0x56, 0x80, 0x3e, 0x00, 0x00,
        0x90, 0x3c, 0x65, 0x00, 0x80, 0x2e, 0x00, 0x00, 0x90, 0x2c, 0x65, 0x82, 0x55, 0x80, 0x3c, 0x00,
        0x00, 0x90, 0x3e, 0x65, 0x00, 0x80, 0x2c, 0x00, 0x00, 0x90, 0x2e, 0x65, 0x84, 0x00, 0x80, 0x41,
        0x00, 0x00, 0x90, 0x46, 0x65, 0x00, 0x80, 0x3e, 0x00, 0x00, 0x90, 0x3e, 0x65, 0x84, 0x00, 0x80,
        0x46, 0x00, 0x00, 0x90, 0x46, 0x65, 0x00, 0x80, 0x3e, 0x00, 0x00, 0x90, 0x3e, 0x65, 0x00, 0x80,
        0x2e, 0x00, 0x00, 0x90, 0x2e, 0x65, 0x82, 0x00, 0x80, 0x46, 0x00, 0x00, 0x90, 0x48, 0x65, 0x00,
        0x80, 0x3e, 0x00, 0x00, 0x90, 0x3f, 0x65, 0x82, 0x00, 0x80, 0x48, 0x00, 0x00, 0x90, 0x4a, 0x65,
        0x00, 0x80, 0x3f, 0x00, 0x00, 0x90, 0x41, 0x65, 0x82, 0x00, 0x80, 0x4a, 0x00, 0x00, 0x90, 0x4b,
        0x65, 0x00, 0x80, 0x41, 0x00, 0x00, 0x90, 0x43, 0x65, 0x82, 0x00, 0x80, 0x4b, 0x00, 0x00, 0x80,
        0x43, 0x00, 0x00, 0x80, 0x2e, 0x00, 0x00, 0x90, 0x4d, 0x65, 0x00, 0x90, 0x44, 0x65, 0x00, 0x90,
        0x2c, 0x65, 0x84, 0x00, 0x80, 0x44, 0x00, 0x00, 0x90, 0x46, 0x65, 0x84, 0x00, 0x80, 0x46, 0x00,
        0x00, 0x90, 0x46, 0x65, 0x00, 0x80, 0x2c, 0x00, 0x00, 0x90, 0x2c, 0x65, 0x82, 0x00, 0x80, 0x46,
        0x00, 0x00, 0x90, 0x48, 0x65, 0x55, 0x80, 0x2c, 0x00, 0x00, 0x90, 0x2c, 0x65, 0x81, 0x2b, 0x80,
        0x48, 0x00, 0x00, 0x90, 0x4a, 0x65, 0x81, 0x2b, 0x80, 0x2c, 0x00, 0x00, 0x90, 0x2a, 0x65, 0x55,
        0x80, 0x4a, 0x00, 0x00, 0x90, 0x4b, 0x65, 0x82, 0x00, 0x80, 0x4d, 0x00, 0x00, 0x80, 0x4b, 0x00,
        0x00, 0x90, 0x4d, 0x65, 0x00, 0x80, 0x2a, 0x00, 0x00, 0x90, 0x2c, 0x65, 0x84, 0x00, 0x90, 0x4d,
        0x65, 0x84, 0x00, 0x80, 0x4d, 0x00, 0x00, 0x90, 0x4d, 0x65, 0x00, 0x80, 0x4d, 0x00, 0x00, 0x90,
        0x44, 0x65, 0x00, 0x80, 0x2c, 0x00, 0x00, 0x90, 0x2c, 0x65, 0x82, 0x55, 0x80, 0x4d, 0x00, 0x00,
        0x90, 0x4e, 0x65, 0x00, 0x80, 0x44, 0x00, 0x00, 0x90, 0x46, 0x65, 0x82, 0x56, 0x80, 0x4e, 0x00,
        0x00, 0x90, 0x50, 0x65, 0x00, 0x80, 0x46, 0x00, 0x00, 0x90, 0x48, 0x65, 0x82, 0x55, 0x80, 0x50,
        0x00, 0x00, 0x80, 0x48, 0x00, 0x00, 0x80, 0x2c, 0x00, 0x00, 0x90, 0x52, 0x65, 0x00, 0x90, 0x49,
        0x65, 0x00, 0x90, 0x2a, 0x65, 0x84, 0x00, 0x80, 0x49, 0x00, 0x00, 0x90, 0x42, 0x65, 0x84, 0x00,
        0x80, 0x42, 0x00, 0x00, 0x90, 0x42, 0x65, 0x00, 0x80, 0x2a, 0x00, 0x00, 0x90, 0x2a, 0x65, 0x82,
        0x00, 0x80, 0x42, 0x00, 0x00, 0x90, 0x44, 0x65, 0x55, 0x80, 0x2a, 0x00, 0x00, 0x90, 0x2a, 0x65,
        0x81, 0x2b, 0x80, 0x44, 0x00, 0x00, 0x90, 0x46, 0x65, 0x81, 0x2b, 0x80, 0x2a, 0x00, 0x00, 0x90,
        0x28, 0x65, 0x55, 0x80, 0x46, 0x00, 0x00, 0x90, 0x48, 0x65, 0x82, 0x00, 0x80, 0x52, 0x00, 0x00,
        0x80, 0x48, 0x00, 0x00, 0x90, 0x49, 0x65, 0x00, 0x80, 0x28, 0x00, 0x00, 0x90, 0x2a, 0x65, 0x84,
        0x00, 0x90, 0x52, 0x65, 0x82, 0x00, 0x80, 0x49, 0x00, 0x00, 0x90, 0x49, 0x65, 0x82, 0x00, 0x80,
        0x52, 0x00, 0x00, 0x90, 0x52, 0x65, 0x00, 0x80, 0x49, 0x00, 0x00, 0x90, 0x49, 0x65, 0x00, 0x80,
        0x2a, 0x00, 0x00, 0x90, 0x2a, 0x65, 0x82, 0x55, 0x80, 0x52, 0x00, 0x00, 0x90, 0x50, 0x65, 0x00,
        0x80, 0x49, 0x00, 0x00, 0x90, 0x48, 0x65, 0x82, 0x56, 0x80, 0x50, 0x00, 0x00, 0x90, 0x4e, 0x65,
        0x00, 0x80, 0x48, 0x00, 0x00, 0x90, 0x46, 0x65, 0x82, 0x55, 0x80, 0x4e, 0x00, 0x00, 0x80, 0x46,
        0x00, 0x00, 0x80, 0x2a, 0x00, 0x00, 0x90, 0x50, 0x65, 0x00, 0x90, 0x49, 0x65, 0x00, 0x90, 0x31,
        0x65, 0x82, 0x55, 0x80, 0x50, 0x00, 0x00, 0x80, 0x49, 0x00, 0x82, 0x56, 0x90, 0x4e, 0x65, 0x00,
        0x90, 0x44, 0x65, 0x82, 0x55, 0x80, 0x4e, 0x00, 0x00, 0x90, 0x4d, 0x65, 0x00, 0x80, 0x44, 0x00,
        0x00, 0x90, 0x44, 0x65, 0x00, 0x80, 0x31, 0x00, 0x00, 0x90, 0x31, 0x65, 0x82, 0x55, 0x80, 0x44,
        0x00, 0x00, 0x90, 0x44, 0x65, 0x00, 0x80, 0x31, 0x00, 0x00, 0x90, 0x31, 0x65, 0x82, 0x56, 0x80,
        0x44, 0x00, 0x00, 0x90, 0x42, 0x65, 0x00, 0x80, 0x31, 0x00, 0x00, 0x90, 0x2f, 0x65, 0x82, 0x55,
        0x80, 0x42, 0x00, 0x00, 0x90, 0x44, 0x65, 0x00, 0x80, 0x2f, 0x00, 0x00, 0x90, 0x31, 0x65, 0x82,
        0x55, 0x80, 0x44, 0x00, 0x82, 0x56, 0x90, 0x44, 0x65, 0x82, 0x55, 0x80, 0x4d, 0x00, 0x00, 0x90,
        0x4d, 0x65, 0x00, 0x80, 0x44, 0x00, 0x00, 0x90, 0x44, 0x65, 0x00, 0x80, 0x31, 0x00, 0x00, 0x90,
        0x31, 0x65, 0x82, 0x55, 0x80, 0x44, 0x00, 0x00, 0x90, 0x44, 0x65, 0x82, 0x56, 0x80, 0x44, 0x00,
        0x00, 0x90, 0x44, 0x65, 0x82, 0x55, 0x80, 0x4d, 0x00, 0x00, 0x80, 0x44, 0x00, 0x00, 0x80, 0x31,
        0x00, 0x00, 0x90, 0x4b, 0x65, 0x00, 0x90, 0x42, 0x65, 0x00, 0x90, 0x2f, 0x65, 0x84, 0x00, 0x80,
        0x4b, 0x00, 0x00, 0x90, 0x4b, 0x65, 0x00, 0x80, 0x42, 0x00, 0x00, 0x90, 0x42, 0x65, 0x82, 0x00,
        0x80, 0x4b, 0x00, 0x00, 0x90, 0x4d, 0x65, 0x00, 0x80, 0x42, 0x00, 0x00, 0x90, 0x41, 0x65, 0x82,
        0x00, 0x80, 0x4d, 0x00, 0x00, 0x90, 0x4e, 0x65, 0x00, 0x80, 0x41, 0x00, 0x00, 0x90, 0x42, 0x65,
        0x00, 0x80, 0x2f, 0x00, 0x00, 0x90, 0x2f, 0x65, 0x82, 0x55, 0x80, 0x2f, 0x00, 0x00, 0x90, 0x2f,
        0x65, 0x81, 0x2b, 0x80, 0x42, 0x00, 0x00, 0x90, 0x42, 0x65, 0x81, 0x2b, 0x80, 0x2f, 0x00, 0x00,
        0x90, 0x2e, 0x65, 0x55, 0x80, 0x42, 0x00, 0x00, 0x90, 0x44, 0x65, 0x82, 0x00, 0x80, 0x44, 0x00,
        0x00, 0x90, 0x46, 0x65, 0x00, 0x80, 0x2e, 0x00, 0x00, 0x90, 0x2f, 0x65, 0x88, 0x00, 0x80, 0x4e,
        0x00, 0x00, 0x90, 0x4d, 0x65, 0x00, 0x80, 0x46, 0x00, 0x00, 0x90, 0x44, 0x65, 0x00, 0x80, 0x2f,
        0x00, 0x00, 0x90, 0x2f, 0x65, 0x82, 0x55, 0x80, 0x2f, 0x00, 0x00, 0x90, 0x2f, 0x65, 0x81, 0x2b,
        0x80, 0x4d, 0x00, 0x00, 0x90, 0x4b, 0x65, 0x00, 0x80, 0x44, 0x00, 0x00, 0x90, 0x42, 0x65, 0x81,
        0x2b, 0x80, 0x2f, 0x00, 0x00, 0x90, 0x2f, 0x65, 0x82, 0x55, 0x80, 0x4b, 0x00, 0x00, 0x80, 0x42,
        0x00, 0x00, 0x80, 0x2f, 0x00, 0x00, 0x90, 0x49, 0x65, 0x00, 0x90, 0x41, 0x65, 0x00, 0x90, 0x2e,
        0x65, 0x84, 0x00, 0x80, 0x49, 0x00, 0x00, 0x90, 0x49, 0x65, 0x00, 0x80, 0x41, 0x00, 0x00, 0x90,
        0x41, 0x65, 0x82, 0x00, 0x80, 0x49, 0x00, 0x00, 0x90, 0x4b, 0x65, 0x00, 0x80, 0x41, 0x00, 0x00,
        0x90, 0x3f, 0x65, 0x82, 0x00, 0x80, 0x4b, 0x00, 0x00, 0x90, 0x4d, 0x65, 0x00, 0x80, 0x3f, 0x00,
        0x00, 0x90, 0x41, 0x65, 0x00, 0x80, 0x2e, 0x00, 0x00, 0x90, 0x2e, 0x65, 0x82, 0x55, 0x80, 0x2e,
        0x00, 0x00, 0x90, 0x2e, 0x65, 0x81, 0x2b, 0x80, 0x41, 0x00, 0x00, 0x90, 0x41, 0x65, 0x81, 0x2b,
        0x80, 0x2e, 0x00, 0x00, 0x90, 0x2c, 0x65, 0x55, 0x80, 0x41, 0x00, 0x00, 0x90, 0x42, 0x65, 0x82,
        0x00, 0x80, 0x42, 0x00, 0x00, 0x90, 0x44, 0x65, 0x00, 0x80, 0x2c, 0x00, 0x00, 0x90, 0x2e, 0x65,
        0x88, 0x00, 0x80, 0x4d, 0x00, 0x00, 0x90, 0x4b, 0x65, 0x00, 0x80, 0x44, 0x00, 0x00, 0x90, 0x42,
        0x65, 0x00, 0x80, 0x2e, 0x00, 0x00, 0x90, 0x2e, 0x65, 0x82, 0x55, 0x80, 0x2e, 0x00, 0x00, 0x90,
        0x2e, 0x65, 0x81, 0x2b, 0x80, 0x4b, 0x00, 0x00, 0x90, 0x49, 0x65, 0x00, 0x80, 0x42, 0x00, 0x00,
        0x90, 0x41, 0x65, 0x81, 0x2b, 0x80, 0x2e, 0x00, 0x00, 0x90, 0x2e, 0x65, 0x82, 0x55, 0x80, 0x49,
        0x00, 0x00, 0x80, 0x41, 0x00, 0x00, 0x80, 0x2e, 0x00, 0x00, 0x90, 0x48, 0x65, 0x00, 0x90, 0x40,
        0x65, 0x00, 0x90, 0x30, 0x65, 0x84, 0x00, 0x80, 0x48, 0x00, 0x00, 0x90, 0x48, 0x65, 0x82, 0x00,
        0x80, 0x48, 0x00, 0x00, 0x90, 0x4a, 0x65, 0x82, 0x00, 0x80, 0x4a, 0x00, 0x00, 0x90, 0x4c, 0x65,
        0x00, 0x80, 0x40, 0x00, 0x00, 0x90, 0x40, 0x65, 0x00, 0x80, 0x30, 0x00, 0x00, 0x90, 0x30, 0x65,
        0x82, 0x55, 0x80, 0x30, 0x00, 0x00, 0x90, 0x30, 0x65, 0x81, 0x2b, 0x80, 0x40, 0x00, 0x00, 0x90,
        0x40, 0x65, 0x81, 0x2b, 0x80, 0x30, 0x00, 0x00, 0x90, 0x30, 0x65, 0x55, 0x80, 0x40, 0x00, 0x00,
        0x90, 0x41, 0x65, 0x82, 0x00, 0x80, 0x41, 0x00, 0x00, 0x90, 0x43, 0x65, 0x00, 0x80, 0x30, 0x00,
        0x00, 0x90, 0x30, 0x65, 0x84, 0x00, 0x80, 0x43, 0x00, 0x00, 0x90, 0x43, 0x65, 0x82, 0x00, 0x80,
        0x43, 0x00, 0x00, 0x90, 0x45, 0x65, 0x82, 0x00, 0x80, 0x4c, 0x00, 0x00, 0x90, 0x4f, 0x65, 0x00,
        0x80, 0x45, 0x00, 0x00, 0x90, 0x46, 0x65, 0x00, 0x80, 0x30, 0x00, 0x00, 0x90, 0x30, 0x65, 0x82,
        0x55, 0x80, 0x30, 0x00, 0x00, 0x90, 0x30, 0x65, 0x81, 0x2b, 0x80, 0x46, 0x00, 0x00, 0x90, 0x48,
        0x65, 0x81, 0x2b, 0x80, 0x30, 0x00, 0x00, 0x90, 0x30, 0x65, 0x82, 0x55, 0x80, 0x4f, 0x00, 0x00,
        0x80, 0x48, 0x00, 0x00, 0x80, 0x30, 0x00, 0x00, 0x90, 0x4d, 0x65, 0x00, 0x90, 0x45, 0x65, 0x00,
        0x90, 0x29, 0x65, 0x84, 0x00, 0x80, 0x4d, 0x00, 0x00, 0x90, 0x41, 0x65, 0x00, 0x80, 0x45, 0x00,
        0x00, 0x90, 0x39, 0x65, 0x82, 0x00, 0x80, 0x41, 0x00, 0x00, 0x90, 0x41, 0x65, 0x00, 0x80, 0x39,
        0x00, 0x00, 0x90, 0x39, 0x65, 0x82, 0x00, 0x80, 0x41, 0x00, 0x00, 0x90, 0x41, 0x65, 0x00, 0x80,
        0x39, 0x00, 0x00, 0x90, 0x39, 0x65, 0x00, 0x80, 0x29, 0x00, 0x00, 0x90, 0x29, 0x65, 0x82, 0x55,
        0x80, 0x29, 0x00, 0x00, 0x90, 0x29, 0x65, 0x81, 0x2b, 0x80, 0x41, 0x00, 0x00, 0x90, 0x41, 0x65,
        0x00, 0x80, 0x39, 0x00, 0x00, 0x90, 0x39, 0x65, 0x81, 0x2b, 0x80, 0x29, 0x00, 0x00, 0x90, 0x29,
        0x65, 0x55, 0x80, 0x41, 0x00, 0x00, 0x90, 0x41, 0x65, 0x00, 0x80, 0x39, 0x00, 0x00, 0x90, 0x39,
        0x65, 0x82, 0x00, 0x80, 0x41, 0x00, 0x00, 0x90, 0x41, 0x65, 0x00, 0x80, 0x39, 0x00, 0x00, 0x90,
        0x39, 0x65, 0x00, 0x80, 0x29, 0x00, 0x00, 0x90, 0x29, 0x65, 0x84, 0x00, 0x80, 0x41, 0x00, 0x00,
        0x90, 0x41, 0x65, 0x00, 0x80, 0x39, 0x00, 0x00, 0x90, 0x39, 0x65, 0x82, 0x00, 0x80, 0x41, 0x00,
        0x00, 0x90, 0x41, 0x65, 0x00, 0x80, 0x39, 0x00, 0x00, 0x90, 0x39, 0x65, 0x82, 0x00, 0x80, 0x41,
        0x00, 0x00, 0x90, 0x41, 0x65, 0x00, 0x80, 0x39, 0x00, 0x00, 0x90, 0x39, 0x65, 0x00, 0x80, 0x29,
        0x00, 0x00, 0x90, 0x2b, 0x65, 0x84, 0x00, 0x80, 0x41, 0x00, 0x00, 0x90, 0x41, 0x65, 0x00, 0x80,
        0x39, 0x00, 0x00, 0x90, 0x39, 0x65, 0x00, 0x80, 0x2b, 0x00, 0x00, 0x90, 0x2d, 0x65, 0x84, 0x00,
        0x80, 0x41, 0x00, 0x00, 0x80, 0x39, 0x00, 0x00, 0x80, 0x2d, 0x00, 0x00, 0x90, 0x46, 0x65, 0x00,
        0x90, 0x3e, 0x65, 0x00, 0x90, 0x2e, 0x65, 0x88, 0x00, 0x80, 0x46, 0x00, 0x00, 0x90, 0x41, 0x65,
        0x00, 0x80, 0x3e, 0x00, 0x00, 0x90, 0x3e, 0x65, 0x00, 0x80, 0x2e, 0x00, 0x00, 0x90, 0x2e, 0x65,
        0x82, 0x55, 0x80, 0x3e, 0x00, 0x00, 0x90, 0x3e, 0x65, 0x00, 0x80, 0x2e, 0x00, 0x00, 0x90, 0x2e,
        0x65, 0x82, 0x56, 0x80, 0x3e, 0x00, 0x00, 0x90, 0x3c, 0x65, 0x00, 0x80, 0x2e, 0x00, 0x00, 0x90,
        0x2c, 0x65, 0x82, 0x55, 0x80, 0x3c, 0x00, 0x00, 0x90, 0x3e, 0x65, 0x00, 0x80, 0x2c, 0x00, 0x00,
        0x90, 0x2e, 0x65, 0x84, 0x00, 0x80, 0x41, 0x00, 0x00, 0x90, 0x46, 0x65, 0x00, 0x80, 0x3e, 0x00,
        0x00, 0x90, 0x3e, 0x65, 0x84, 0x00, 0x80, 0x46, 0x00, 0x00, 0x90, 0x46, 0x65, 0x00, 0x80, 0x3e,
        0x00, 0x00, 0x90, 0x3e, 0x65, 0x00, 0x80, 0x2e, 0x00, 0x00, 0x90, 0x2e, 0x65, 0x82, 0x00, 0x80,
        0x46, 0x00, 0x00, 0x90, 0x48, 0x65, 0x00, 0x80, 0x3e, 0x00, 0x00, 0x90, 0x3f, 0x65, 0x82, 0x00,
        0x80, 0x48, 0x00, 0x00, 0x90, 0x4a, 0x65, 0x00, 0x80, 0x3f, 0x00, 0x00, 0x90, 0x41, 0x65, 0x82,
        0x00, 0x80, 0x4a, 0x00, 0x00, 0x90, 0x4b, 0x65, 0x00, 0x80, 0x41, 0x00, 0x00, 0x90, 0x43, 0x65,
        0x82, 0x00, 0x80, 0x4b, 0x00, 0x00, 0x80, 0x43, 0x00, 0x00, 0x80, 0x2e, 0x00, 0x00, 0x90, 0x4d,
        0x65, 0x00, 0x90, 0x44, 0x65, 0x00, 0x90, 0x2c, 0x65, 0x84, 0x00, 0x80, 0x44, 0x00, 0x00, 0x90,
        0x46, 0x65, 0x84, 0x00, 0x80, 0x46, 0x00, 0x00, 0x90, 0x46, 0x65, 0x00, 0x80, 0x2c, 0x00, 0x00,
        0x90, 0x2c, 0x65, 0x82, 0x00, 0x80, 0x46, 0x00, 0x00, 0x90, 0x48, 0x65, 0x55, 0x80, 0x2c, 0x00,
        0x00, 0x90, 0x2c, 0x65, 0x81, 0x2b, 0x80, 0x48, 0x00, 0x00, 0x90, 0x4a, 0x65, 0x81, 0x2b, 0x80,
        0x2c, 0x00, 0x00, 0x90, 0x2a, 0x65, 0x55, 0x80, 0x4a, 0x00, 0x00, 0x90, 0x4b, 0x65, 0x82, 0x00,
        0x80, 0x4d, 0x00, 0x00, 0x80, 0x4b, 0x00, 0x00, 0x90, 0x4d, 0x65, 0x00, 0x80, 0x2a, 0x00, 0x00,
        0x90, 0x2c, 0x65, 0x84, 0x00, 0x90, 0x4d, 0x65, 0x84, 0x00, 0x80, 0x4d, 0x00, 0x00, 0x90, 0x4d,
        0x65, 0x00, 0x80, 0x4d, 0x00, 0x00, 0x90, 0x44, 0x65, 0x00, 0x80, 0x2c, 0x00, 0x00, 0x90, 0x2c,
        0x65, 0x82, 0x55, 0x80, 0x4d, 0x00, 0x00, 0x90, 0x4e, 0x65, 0x00, 0x80, 0x44, 0x00, 0x00, 0x90,
        0x46, 0x65, 0x82, 0x56, 0x80, 0x4e, 0x00, 0x00, 0x90, 0x50, 0x65, 0x00, 0x80, 0x46, 0x00, 0x00,
        0x90, 0x48, 0x65, 0x82, 0x55, 0x80, 0x50, 0x00, 0x00, 0x80, 0x48, 0x00, 0x00, 0x80, 0x2c, 0x00,
        0x00, 0x90, 0x52, 0x65, 0x00, 0x90, 0x49, 0x65, 0x00, 0x90, 0x2a, 0x65, 0x88, 0x00, 0x80, 0x2a,
        0x00, 0x00, 0x90, 0x2a, 0x65, 0x82, 0x55, 0x80, 0x2a, 0x00, 0x00, 0x90, 0x2a, 0x65, 0x82, 0x56,
        0x80, 0x2a, 0x00, 0x00, 0x90, 0x28, 0x65, 0x82, 0x55, 0x80, 0x52, 0x00, 0x00, 0x80, 0x49, 0x00,
        0x00, 0x80, 0x28, 0x00, 0x00, 0x90, 0x2a, 0x65, 0x88, 0x00, 0x90, 0x55, 0x65, 0x00, 0x90, 0x4c,
        0x65, 0x00, 0x80, 0x2a, 0x00, 0x00, 0x90, 0x2a, 0x65, 0x88, 0x00, 0x80, 0x55, 0x00, 0x00, 0x80,
        0x4c, 0x00, 0x00, 0x80, 0x2a, 0x00, 0x00, 0x90, 0x54, 0x65, 0x00, 0x90, 0x4b, 0x65, 0x00, 0x90,
        0x29, 0x65, 0x88, 0x00, 0x80, 0x54, 0x00, 0x00, 0x90, 0x51, 0x65, 0x00, 0x80, 0x4b, 0x00, 0x00,
        0x90, 0x48, 0x65, 0x00, 0x80, 0x29, 0x00, 0x00, 0x90, 0x29, 0x65, 0x82, 0x55, 0x80, 0x29, 0x00,
        0x00, 0x90, 0x29, 0x65, 0x82, 0x56, 0x80, 0x29, 0x00, 0x00, 0x90, 0x27, 0x65, 0x82, 0x55, 0x80,
        0x51, 0x00, 0x00, 0x80, 0x48, 0x00, 0x00, 0x80, 0x27, 0x00, 0x00, 0x90, 0x29, 0x65, 0x88, 0x00,
        0x90, 0x4d, 0x65, 0x00, 0x90, 0x45, 0x65, 0x00, 0x80, 0x29, 0x00, 0x00, 0x90, 0x29, 0x65, 0x88,
        0x00, 0x80, 0x4d, 0x00, 0x00, 0x80, 0x45, 0x00, 0x00, 0x80, 0x29, 0x00, 0x00, 0x90, 0x4e, 0x65,
        0x00, 0x90, 0x47, 0x65, 0x00, 0x90, 0x28, 0x65, 0x82, 0x55, 0x80, 0x28, 0x00, 0x00, 0x90, 0x2e,
        0x65, 0x82, 0x56, 0x80, 0x2e, 0x00, 0x00, 0x90, 0x31, 0x65, 0x82, 0x55, 0x80, 0x31, 0x00, 0x00,
        0x90, 0x34, 0x65, 0x82, 0x55, 0x80, 0x34, 0x00, 0x00, 0x90, 0x3a, 0x65, 0x82, 0x56, 0x80, 0x3a,
        0x00, 0x00, 0x90, 0x3d, 0x65, 0x82, 0x55, 0x80, 0x4e, 0x00, 0x00, 0x80, 0x47, 0x00, 0x00, 0x80,
        0x3d, 0x00, 0x00, 0x90, 0x40, 0x65, 0x88, 0x00, 0x90, 0x52, 0x65, 0x00, 0x90, 0x49, 0x65, 0x00,
        0x80, 0x40, 0x00, 0x88, 0x00, 0x80, 0x52, 0x00, 0x00, 0x80, 0x49, 0x00, 0x00, 0x90, 0x51, 0x65,
        0x00, 0x90, 0x48, 0x65, 0x00, 0x90, 0x41, 0x65, 0x88, 0x00, 0x80, 0x51, 0x00, 0x00, 0x90, 0x4d,
        0x65, 0x00, 0x80, 0x48, 0x00, 0x00, 0x90, 0x45, 0x65, 0x00, 0x80, 0x41, 0x00, 0x00, 0x90, 0x29,
        0x65, 0x82, 0x55, 0x80, 0x29, 0x00, 0x00, 0x90, 0x29, 0x65, 0x82, 0x56, 0x80, 0x29, 0x00, 0x00,
        0x90, 0x29, 0x65, 0x82, 0x55, 0x80, 0x4d, 0x00, 0x00, 0x80, 0x45, 0x00, 0x00, 0x80, 0x29, 0x00,
        0x00, 0x90, 0x29, 0x65, 0x88, 0x00, 0x90, 0x4d, 0x65, 0x00, 0x90, 0x45, 0x65, 0x00, 0x80, 0x29,
        0x00, 0x88, 0x00, 0x80, 0x4d, 0x00, 0x00, 0x80, 0x45, 0x00, 0x00, 0x90, 0x4e, 0x65, 0x00, 0x90,
        0x47, 0x65, 0x00, 0x90, 0x28, 0x65, 0x82, 0x55, 0x80, 0x28, 0x00, 0x00, 0x90, 0x2e, 0x65, 0x82,
        0x56, 0x80, 0x2e, 0x00, 0x00, 0x90, 0x31, 0x65, 0x82, 0x55, 0x80, 0x31, 0x00, 0x00, 0x90, 0x34,
        0x65, 0x82, 0x55, 0x80, 0x34, 0x00, 0x00, 0x90, 0x3a, 0x65, 0x82, 0x56, 0x80, 0x3a, 0x00, 0x00,
        0x90, 0x3d, 0x65, 0x82, 0x55, 0x80, 0x4e, 0x00, 0x00, 0x80, 0x47, 0x00, 0x00, 0x80, 0x3d, 0x00,
        0x00, 0x90, 0x40, 0x65, 0x88, 0x00, 0x90, 0x52, 0x65, 0x00, 0x90, 0x49, 0x65, 0x00, 0x80, 0x40,
        0x00, 0x88, 0x00, 0x80, 0x52, 0x00, 0x00, 0x80, 0x49, 0x00, 0x00, 0x90, 0x51, 0x65, 0x00, 0x90,
        0x48, 0x65, 0x00, 0x90, 0x41, 0x65, 0x88, 0x00, 0x80, 0x51, 0x00, 0x00, 0x90, 0x4d, 0x65, 0x00,
        0x80, 0x48, 0x00, 0x00, 0x90, 0x45, 0x65, 0x00, 0x80, 0x41, 0x00, 0x00, 0x90, 0x29, 0x65, 0x82,
        0x55, 0x80, 0x29, 0x00, 0x00, 0x90, 0x29, 0x65, 0x82, 0x56, 0x80, 0x29, 0x00, 0x00, 0x90, 0x29,
        0x65, 0x82, 0x55, 0x80, 0x4d, 0x00, 0x00, 0x80, 0x45, 0x00, 0x00, 0x80, 0x29, 0x00, 0x00, 0x90,
        0x29, 0x65, 0x88, 0x00, 0x90, 0x4a, 0x65, 0x00, 0x90, 0x45, 0x65, 0x00, 0x80, 0x29, 0x00, 0x88,
        0x00, 0x80, 0x4a, 0x00, 0x00, 0x80, 0x45, 0x00, 0x00, 0x90, 0x4b, 0x65, 0x00, 0x90, 0x42, 0x65,
        0x00, 0x90, 0x2f, 0x65, 0x88, 0x00, 0x80, 0x2f, 0x00, 0x00, 0x90, 0x2f, 0x65, 0x82, 0x55, 0x80,
        0x2f, 0x00, 0x00, 0x90, 0x2f, 0x65, 0x82, 0x56, 0x80, 0x2f, 0x00, 0x00, 0x90, 0x2e, 0x65, 0x82,
        0x55, 0x80, 0x4b, 0x00, 0x00, 0x80, 0x42, 0x00, 0x00, 0x80, 0x2e, 0x00, 0x00, 0x90, 0x2f, 0x65,
        0x88, 0x00, 0x90, 0x4e, 0x65, 0x00, 0x90, 0x47, 0x65, 0x00, 0x80, 0x2f, 0x00, 0x00, 0x90, 0x2f,
        0x65, 0x82, 0x55, 0x80, 0x2f, 0x00, 0x00, 0x90, 0x2f, 0x65, 0x82, 0x56, 0x80, 0x2f, 0x00, 0x00,
        0x90, 0x2f, 0x65, 0x82, 0x55, 0x80, 0x4e, 0x00, 0x00, 0x80, 0x47, 0x00, 0x00, 0x80, 0x2f, 0x00,
        0x00, 0x90, 0x4d, 0x65, 0x00, 0x90, 0x46, 0x65, 0x00, 0x90, 0x2e, 0x65, 0x88, 0x00, 0x80, 0x4d,
        0x00, 0x00, 0x90, 0x49, 0x65, 0x00, 0x80, 0x46, 0x00, 0x00, 0x90, 0x41, 0x65, 0x00, 0x80, 0x2e,
        0x00, 0x00, 0x90, 0x2e, 0x65, 0x82, 0x55, 0x80, 0x2e, 0x00, 0x00, 0x90, 0x2e, 0x65, 0x82, 0x56,
        0x80, 0x2e, 0x00, 0x00, 0x90, 0x2c, 0x65, 0x82, 0x55, 0x80, 0x49, 0x00, 0x00, 0x80, 0x41, 0x00,
        0x00, 0x80, 0x2c, 0x00, 0x00, 0x90, 0x2e, 0x65, 0x88, 0x00, 0x90, 0x46, 0x65, 0x00, 0x90, 0x3d,
        0x65, 0x00, 0x80, 0x2e, 0x00, 0x00, 0x90, 0x2e, 0x65, 0x82, 0x55, 0x80, 0x2e, 0x00, 0x00, 0x90,
        0x2e, 0x65, 0x82, 0x56, 0x80, 0x2e, 0x00, 0x00, 0x90, 0x2e, 0x65, 0x82, 0x55, 0x80, 0x46, 0x00,
        0x00, 0x80, 0x3d, 0x00, 0x00, 0x80, 0x2e, 0x00, 0x00, 0x90, 0x48, 0x65, 0x00, 0x90, 0x40, 0x65,
        0x00, 0x90, 0x30, 0x65, 0x84, 0x00, 0x80, 0x48, 0x00, 0x00, 0x90, 0x48, 0x65, 0x82, 0x00, 0x80,
        0x48, 0x00, 0x00, 0x90, 0x4a, 0x65, 0x82, 0x00, 0x80, 0x4a, 0x00, 0x00, 0x90, 0x4c, 0x65, 0x00,
        0x80, 0x40, 0x00, 0x00, 0x90, 0x40, 0x65, 0x00, 0x80, 0x30, 0x00, 0x00, 0x90, 0x30, 0x65, 0x82,
        0x55, 0x80, 0x30, 0x00, 0x00, 0x90, 0x30, 0x65, 0x81, 0x2b, 0x80, 0x40, 0x00, 0x00, 0x90, 0x40,
        0x65, 0x81, 0x2b, 0x80, 0x30, 0x00, 0x00, 0x90, 0x30, 0x65, 0x55, 0x80, 0x40, 0x00, 0x00, 0x90,
        0x41, 0x65, 0x82, 0x00, 0x80, 0x41, 0x00, 0x00, 0x90, 0x43, 0x65, 0x00, 0x80, 0x30, 0x00, 0x00,
        0x90, 0x30, 0x65, 0x84, 0x00, 0x80, 0x43, 0x00, 0x00, 0x90, 0x43, 0x65, 0x82, 0x00, 0x80, 0x43,
        0x00, 0x00, 0x90, 0x45, 0x65, 0x82, 0x00, 0x80, 0x4c, 0x00, 0x00, 0x90, 0x4f, 0x65, 0x00, 0x80,
        0x45, 0x00, 0x00, 0x90, 0x46, 0x65, 0x00, 0x80, 0x30, 0x00, 0x00, 0x90, 0x30, 0x65, 0x82, 0x55,
        0x80, 0x30, 0x00, 0x00, 0x90, 0x30, 0x65, 0x81, 0x2b, 0x80, 0x46, 0x00, 0x00, 0x90, 0x48, 0x65,
        0x81, 0x2b, 0x80, 0x30, 0x00, 0x00, 0x90, 0x30, 0x65, 0x82, 0x55, 0x80, 0x4f, 0x00, 0x00, 0x80,
        0x48, 0x00, 0x00, 0x80, 0x30, 0x00, 0x00, 0x90, 0x4d, 0x65, 0x00, 0x90, 0x45, 0x65, 0x00, 0x90,
        0x29, 0x65, 0x84, 0x00, 0x80, 0x4d, 0x00, 0x00, 0x90, 0x41, 0x65, 0x00, 0x80, 0x45, 0x00, 0x00,
        0x90, 0x39, 0x65, 0x82, 0x00, 0x80, 0x41, 0x00, 0x00, 0x90, 0x41, 0x65, 0x00, 0x80, 0x39, 0x00,
        0x00, 0x90, 0x39, 0x65, 0x82, 0x00, 0x80, 0x41, 0x00, 0x00, 0x90, 0x41, 0x65, 0x00, 0x80, 0x39,
        0x00, 0x00, 0x90, 0x39, 0x65, 0x00, 0x80, 0x29, 0x00, 0x00, 0x90, 0x29, 0x65, 0x82, 0x55, 0x80,
        0x29, 0x00, 0x00, 0x90, 0x29, 0x65, 0x81, 0x2b, 0x80, 0x41, 0x00, 0x00, 0x90, 0x41, 0x65, 0x00,
        0x80, 0x39, 0x00, 0x00, 0x90, 0x39, 0x65, 0x81, 0x2b, 0x80, 0x29, 0x00, 0x00, 0x90, 0x29, 0x65,
        0x55, 0x80, 0x41, 0x00, 0x00, 0x90, 0x41, 0x65, 0x00, 0x80, 0x39, 0x00, 0x00, 0x90, 0x39, 0x65,
        0x82, 0x00, 0x80, 0x41, 0x00, 0x00, 0x90, 0x41, 0x65, 0x00, 0x80, 0x39, 0x00, 0x00, 0x90, 0x39,
        0x65, 0x00, 0x80, 0x29, 0x00, 0x00, 0x90, 0x29, 0x65, 0x84, 0x00, 0x80, 0x41, 0x00, 0x00, 0x90,
        0x41, 0x65, 0x00, 0x80, 0x39, 0x00, 0x00, 0x90, 0x39, 0x65, 0x82, 0x00, 0x80, 0x41, 0x00, 0x00,
        0x90, 0x41, 0x65, 0x00, 0x80, 0x39, 0x00, 0x00, 0x90, 0x39, 0x65, 0x82, 0x00, 0x80, 0x41, 0x00,
        0x00, 0x90, 0x41, 0x65, 0x00, 0x80, 0x39, 0x00, 0x00, 0x90, 0x39, 0x65, 0x00, 0x80, 0x29, 0x00,
        0x00, 0x90, 0x2b, 0x65, 0x84, 0x00, 0x80, 0x41, 0x00, 0x00, 0x90, 0x41, 0x65, 0x00, 0x80, 0x39,
        0x00, 0x00, 0x90, 0x39, 0x65, 0x00, 0x80, 0x2b, 0x00, 0x00, 0x90, 0x2d, 0x65, 0x84, 0x00, 0x80,
        0x41, 0x00, 0x00, 0x80, 0x39, 0x00, 0x00, 0x80, 0x2d, 0x00, 0x00, 0xff, 0x2f, 0x00
};